<svg id="Layer_1" data-name="Layer 1" xmlns="http://www.w3.org/2000/svg" viewBox="0 0 223.32473 248.91947"><defs><style>.cls-1{fill:#212429;}</style></defs><path class="cls-1" d="M223.3238,3.81089a3.68885,3.68885,0,0,0-.10056-.9003c-.00962-.047-.02145-.09391-.03254-.13569a3.7297,3.7297,0,0,0-.41484-.94985c-.02588-.04363-.07469-.12164-.10279-.16342a3.74169,3.74169,0,0,0-.59971-.687,2.26811,2.26811,0,0,0-.179-.15714c-.054-.04252-.11314-.0843-.17377-.12349a3.62739,3.62739,0,0,0-.76979-.41965A1.90917,1.90917,0,0,0,220.763.20709,3.17525,3.17525,0,0,0,220.37259.091a3.613,3.613,0,0,0-.54351-.0795L219.801.00891c-.0281-.00221-.0562-.00406-.085-.00554a3.88682,3.88682,0,0,0-1.03822.10131c-.05028.01109-.1331.03142-.18264.04584a3.765,3.765,0,0,0-.8356.35569c-.06656.03475-.13089.07246-.19153.112L111.66261,69.94487,5.87169.62822A2.34357,2.34357,0,0,0,5.65835.50251,3.828,3.828,0,0,0,4.805.1435c-.024-.00666-.108-.027-.13237-.03291A3.78486,3.78486,0,0,0,3.58821.00411c-.037.00222-.07505.00554-.11351.00961A3.51726,3.51726,0,0,0,2.96521.088a2.54868,2.54868,0,0,0-.34089.09909C2.56183.20561,2.46015.24,2.39952.26366a3.74282,3.74282,0,0,0-.78495.42409,2.341,2.341,0,0,0-.19965.142,2.3208,2.3208,0,0,0-.17637.15751,3.69671,3.69671,0,0,0-.58048.66589c-.02145.03106-.07728.12017-.09724.1527a3.81287,3.81287,0,0,0-.43037.98239c-.00961.03586-.01923.07616-.0281.11683a3.79259,3.79259,0,0,0-.10131.8955l-.00037.0329A2.4662,2.4662,0,0,0,.007,4.0808L11.34265,148.75888c.00517.06729.014.1368.02588.20631a3.83852,3.83852,0,0,0,.18487.76239c.02.06064.04584.13237.06729.18413a3.76611,3.76611,0,0,0,.49211.84891c.037.0488.07432.09391.09392.11609a3.4702,3.4702,0,0,0,.2333.26621l69.64756,69.64756,26.866,26.88929a3.76472,3.76472,0,0,0,2.67872,1.1092h.06286a3.63958,3.63958,0,0,0,.90733-.11683c.08208-.02.1612-.04289.25659-.074a3.75588,3.75588,0,0,0,.65887-.2847c.06655-.03475.14641-.07986.20187-.11535a3.77018,3.77018,0,0,0,.65148-.51911L141.23543,220.792l69.649-69.649a2.76012,2.76012,0,0,0,.21666-.24476c.02441-.02884.09244-.1124.11536-.14272a3.81512,3.81512,0,0,0,.50358-.88366c.01331-.034.03106-.085.04584-.12867a3.74015,3.74015,0,0,0,.18561-.75056,2.32366,2.32366,0,0,0,.03032-.23071L223.32011,4.04493c.00369-.05694.00517-.12608.00443-.18782ZM115.97667,76.32981l95.909-62.99235-35.03009,92.709-52.639-28.98494a2.26929,2.26929,0,0,0-2.251.03365l-3.03034,1.78914a2.27163,2.27163,0,0,0,.05916,3.94617l54.839,30.19619-62.142,123.55369L49.49182,113.02407,115.8273,76.42C115.87832,76.39192,115.92861,76.362,115.97667,76.32981ZM135.8802,215.439l-10.22833,10.23646,53.92129-107.20885L203.143,148.17544l-67.262,67.26277Zm47.27569-104.64031L213.693,29.97956l-8.50758,108.58649ZM104.32413,74.18942l-57.85526,31.857L11.434,13.32526ZM40.16934,110.79864,18.1391,138.56605,9.63189,29.97956Zm3.58235,7.66792L97.67335,225.67689,87.44355,215.439l-.00037-.00074-67.262-67.26277Z"/></svg>