<svg id="Layer_1" data-name="Layer 1" xmlns="http://www.w3.org/2000/svg" viewBox="0 0 1086.75916 323.17524"><defs><style>.cls-1{fill:#fff;}</style></defs><path class="cls-1" d="M75.78488,137.14152H51.16116V107.29428H75.78488v-21.389a96.88128,96.88128,0,0,1,1.74074-18.77859,38.07706,38.07706,0,0,1,6.71485-15.54522q4.97344-6.71681,14.302-10.57112,9.32793-3.853,24.49966-3.855,5.7178,0,11.19272.49754a76.35522,76.35522,0,0,1,10.69518,1.74075L143.188,70.9816a44.39236,44.39236,0,0,0-5.96919-1.8661,28.392,28.392,0,0,0-6.2173-.6216q-8.95378,0-13.431,3.855-4.47787,3.85888-4.47787,15.79465v19.15077h27.609v29.84724h-27.609v91.03372H75.78488Z"/><path class="cls-1" d="M150.40039,167.73508a63.33416,63.33416,0,0,1,5.22353-26.11568,60.1104,60.1104,0,0,1,14.302-20.0231,63.15422,63.15422,0,0,1,21.39036-12.8094,79.14155,79.14155,0,0,1,52.47949,0,63.192,63.192,0,0,1,21.39036,12.8094,60.16555,60.16555,0,0,1,14.302,20.0231,63.33416,63.33416,0,0,1,5.22353,26.11568,63.30912,63.30912,0,0,1-5.22353,26.11635,60.06791,60.06791,0,0,1-14.302,20.02179,63.10862,63.10862,0,0,1-21.39036,12.8094,79.11971,79.11971,0,0,1-52.47949,0,63.071,63.071,0,0,1-21.39036-12.8094,60.013,60.013,0,0,1-14.302-20.02179A63.30912,63.30912,0,0,1,150.40039,167.73508Zm37.30906,0q0,13.68238,7.834,22.13732,7.83529,8.4582,22.01326,8.45559,14.176,0,22.01195-8.45559,7.83333-8.45428,7.834-22.13732,0-13.67454-7.834-22.13666-7.83529-8.45232-22.01195-8.4569-14.178,0-22.01326,8.4569Q187.7101,154.0576,187.70945,167.73508Z"/><path class="cls-1" d="M513.28421,142.8626q-8.20746-10.19568-21.63847-10.19764a20.33942,20.33942,0,0,0-9.20255,2.23828q-4.47787,2.23894-4.47787,7.70993,0,4.47788,4.60193,6.59275a60.73033,60.73033,0,0,0,11.69026,3.73091q7.089,1.61994,15.17174,3.48148a57.09525,57.09525,0,0,1,15.17174,5.84513,34.00533,34.00533,0,0,1,11.69026,10.81923q4.59931,6.84414,4.60193,18.281,0,11.69418-5.09947,19.27613a39.09178,39.09178,0,0,1-13.05752,12.1878,56.13663,56.13663,0,0,1-17.90887,6.46673,106.48894,106.48894,0,0,1-19.64831,1.86611,95.14892,95.14892,0,0,1-25.6188-3.60685,47.81925,47.81925,0,0,1-21.88789-12.8094L460.30587,189.623a37.52053,37.52053,0,0,0,11.5662,9.82415,31.16263,31.16263,0,0,0,14.79957,3.35873,34.55769,34.55769,0,0,0,11.68895-1.8661q5.22419-1.8648,5.22353-6.84022,0-4.72075-4.60062-7.08833a50.63018,50.63018,0,0,0-11.69026-3.979q-7.089-1.616-15.17305-3.48279a62.69765,62.69765,0,0,1-15.17174-5.5957,31.71475,31.71475,0,0,1-11.69026-10.57112q-4.60519-6.83826-4.60063-18.2817,0-10.69127,4.35251-18.40511a38.25658,38.25658,0,0,1,11.44084-12.68534,49.57291,49.57291,0,0,1,16.29218-7.33775,74.75651,74.75651,0,0,1,18.65323-2.36234,87.59035,87.59035,0,0,1,24.12618,3.48148A44.78231,44.78231,0,0,1,536.16719,120.229Z"/><path class="cls-1" d="M545.61786,107.29428h39.79546l24.62372,75.862h.49754l20.64339-75.862h40.79054l22.38544,75.862h.49754l22.63355-75.862h37.8066l-43.02882,120.881H675.4513L650.33,147.83735h-.49754l-22.38544,80.33789H589.88989Z"/><path class="cls-1" d="M843.08873,213.0035h-.49754A35.09527,35.09527,0,0,1,826.05088,226.932a56.90329,56.90329,0,0,1-21.76253,4.22845,56.17175,56.17175,0,0,1-16.29219-2.36365,41.07076,41.07076,0,0,1-13.80317-7.08833,34.18727,34.18727,0,0,1-9.452-11.69026,35.65125,35.65125,0,0,1-3.48279-16.16682q0-10.4464,3.85627-17.65945a34.48635,34.48635,0,0,1,10.44576-11.93838,51.87491,51.87491,0,0,1,15.04768-7.33775,110.04419,110.04419,0,0,1,17.53539-3.855,168.03623,168.03623,0,0,1,18.157-1.49262q9.07523-.24484,16.78842-.24812,0-9.94593-7.08833-15.7953a25.57713,25.57713,0,0,0-16.78842-5.84513,36.529,36.529,0,0,0-16.78973,3.855,45.88551,45.88551,0,0,0-13.55506,10.57112l-19.89773-20.39528a68.44667,68.44667,0,0,1,24.37429-14.55014,87.11624,87.11624,0,0,1,28.85217-4.85q16.4169,0,26.98606,4.10438a39.26079,39.26079,0,0,1,16.91379,12.06244,46.51471,46.51471,0,0,1,8.83037,19.52555,128.40007,128.40007,0,0,1,2.4864,26.73729v61.43524H843.08873Zm-9.20255-37.8066q-4.233,0-10.57112.37348a53.63943,53.63943,0,0,0-12.1878,2.11422,27.15218,27.15218,0,0,0-9.94821,5.22353q-4.10374,3.48476-4.10439,9.7001a10.66533,10.66533,0,0,0,5.72107,9.94821,23.90442,23.90442,0,0,0,11.93838,3.23336,37.44982,37.44982,0,0,0,10.57111-1.49262,31.50664,31.50664,0,0,0,9.0785-4.22714,20.47116,20.47116,0,0,0,6.34267-6.96427,20.081,20.081,0,0,0,2.36234-9.94952V175.1969Z"/><path class="cls-1" d="M904.27193,107.29428h34.32382V123.213h.49754a41.2667,41.2667,0,0,1,5.84513-6.59079,44.21815,44.21815,0,0,1,8.45689-6.09324,52.70367,52.70367,0,0,1,10.56981-4.47787,41.71327,41.71327,0,0,1,12.1878-1.74074,62.31573,62.31573,0,0,1,24.3756,4.60192,54.414,54.414,0,0,1,18.77859,12.93346,57.7537,57.7537,0,0,1,12.06244,19.77368A71.98966,71.98966,0,0,1,1035.598,166.74a76.22776,76.22776,0,0,1-3.855,24.25154,66.78734,66.78734,0,0,1-10.9446,20.51933,53.44957,53.44957,0,0,1-17.286,14.302,49.083,49.083,0,0,1-23.13109,5.34759,64.16761,64.16761,0,0,1-21.76384-3.60685,34.78622,34.78622,0,0,1-16.539-12.31186H941.581v69.64271H904.27193Zm34.32382,60.4408q0,13.68238,7.83529,22.13732,7.83333,8.4582,22.01195,8.45559,14.176,0,22.012-8.45559,7.83529-8.45428,7.834-22.13732,0-13.67454-7.834-22.13666-7.8353-8.45232-22.012-8.4569-14.178,0-22.01195,8.4569Q938.59574,154.0576,938.59575,167.73508Z"/><path class="cls-1" d="M390.22518,228.17524,364.25025,191.028l-26.701,37.14727H291.42263l48.30479-63.35929-43.69657-57.536H342.402l22.57434,32.28716,24.27834,25.24888,47.82322,63.35929Z"/><polygon class="cls-1" points="392.224 161.846 435.676 104.31 390.765 104.31 367.946 136.597 392.224 161.846"/></svg>