<svg xmlns="http://www.w3.org/2000/svg" viewBox="0 0 775.17577 205.21432"><defs><style>.cls-1{fill:#212429;}</style></defs><g id="text"><path class="cls-1" d="M234.64364,105.128H220.77645V88.31912h13.86719V76.27358a54.56054,54.56054,0,0,1,.98032-10.57542,21.44386,21.44386,0,0,1,3.78156-8.75451,18.52962,18.52962,0,0,1,8.05439-5.95327q5.25315-2.16987,13.79732-2.171,3.22006,0,6.30334.2802a43.00043,43.00043,0,0,1,6.02314.98032l-.98106,17.78922a24.9994,24.9994,0,0,0-3.36163-1.05093,15.98931,15.98931,0,0,0-3.50137-.35006q-5.04244,0-7.56385,2.171-2.52177,2.17319-2.52178,8.895v10.785H271.2024V105.128H255.654v51.2669H234.64364Z"/><path class="cls-1" d="M276.66441,122.35721a35.66759,35.66759,0,0,1,2.9417-14.70742,33.85187,33.85187,0,0,1,8.05438-11.27628,35.566,35.566,0,0,1,12.04628-7.21379,44.56963,44.56963,0,0,1,29.55456,0,35.58732,35.58732,0,0,1,12.04627,7.21379,33.88307,33.88307,0,0,1,8.05439,11.27628,38.2376,38.2376,0,0,1,0,29.4152,33.828,33.828,0,0,1-8.05439,11.27555,35.54044,35.54044,0,0,1-12.04627,7.21379,44.55729,44.55729,0,0,1-29.55456,0,35.5192,35.5192,0,0,1-12.04628-7.21379,33.79694,33.79694,0,0,1-8.05438-11.27555A35.65345,35.65345,0,0,1,276.66441,122.35721Zm21.01111,0q0,7.70543,4.41182,12.46694,4.41257,4.76335,12.39708,4.76188,7.98341,0,12.39633-4.76188,4.41146-4.76115,4.41182-12.46694,0-7.701-4.41182-12.46657-4.41255-4.76006-12.39633-4.76262-7.98453,0-12.39708,4.76262Q297.67589,114.65454,297.67552,122.35721Z"/><path class="cls-1" d="M481.02749,108.34992a14.87748,14.87748,0,0,0-12.186-5.74294,11.45445,11.45445,0,0,0-5.18255,1.26052,4.4583,4.4583,0,0,0-2.52177,4.34195,3.90349,3.90349,0,0,0,2.59164,3.7128,34.20093,34.20093,0,0,0,6.58353,2.10111q3.99227.9123,8.54418,1.96065a32.154,32.154,0,0,1,8.54418,3.29176,19.15057,19.15057,0,0,1,6.58353,6.093q2.59017,3.85436,2.59164,10.29522a19.07047,19.07047,0,0,1-2.87184,10.85562,22.015,22.015,0,0,1-7.35352,6.86373,31.614,31.614,0,0,1-10.08563,3.64183,59.9704,59.9704,0,0,1-11.06522,1.05093,53.58433,53.58433,0,0,1-14.42758-2.03125,26.93011,26.93011,0,0,1-12.32648-7.21379l12.7464-14.14739a21.13026,21.13026,0,0,0,6.51367,5.53261,17.54974,17.54974,0,0,0,8.33458,1.89151,19.46161,19.46161,0,0,0,6.5828-1.05092,3.87294,3.87294,0,0,0,2.9417-3.85216,4.2708,4.2708,0,0,0-2.5909-3.99189,28.51216,28.51216,0,0,0-6.58354-2.24084q-3.99225-.9101-8.54491-1.96139a35.309,35.309,0,0,1-8.54418-3.15129,17.86065,17.86065,0,0,1-6.58353-5.95328q-2.59347-3.85105-2.5909-10.29559A20.7548,20.7548,0,0,1,442.578,99.24535a21.54477,21.54477,0,0,1,6.44307-7.14393,27.91766,27.91766,0,0,1,9.17517-4.13236A42.10008,42.10008,0,0,1,468.701,86.63868a49.32806,49.32806,0,0,1,13.587,1.96064,25.21978,25.21978,0,0,1,11.62634,7.0042Z"/><path class="cls-1" d="M499.23663,88.31912H521.648l13.86719,42.72273h.28019L547.421,88.31912h22.97176l12.60667,42.72273h.2802L596.026,88.31912h21.29131l-24.23228,68.0758H572.35414l-14.14739-45.2434h-.28019l-12.60667,45.2434H524.169Z"/><path class="cls-1" d="M666.76149,147.85074h-.28019a19.76441,19.76441,0,0,1-9.31491,7.84406,32.046,32.046,0,0,1-12.25587,2.38131,31.63416,31.63416,0,0,1-9.17517-1.33112,23.12939,23.12939,0,0,1-7.77345-3.9919,19.253,19.253,0,0,1-5.323-6.58353,20.07759,20.07759,0,0,1-1.96138-9.10457,20.86245,20.86245,0,0,1,2.17171-9.94516,19.42137,19.42137,0,0,1,5.88268-6.72327,29.21421,29.21421,0,0,1,8.47431-4.13236,61.97228,61.97228,0,0,1,9.8753-2.171,94.63122,94.63122,0,0,1,10.22536-.84059q5.11085-.1379,9.45463-.13974a10.92925,10.92925,0,0,0-3.99189-8.89534,14.40409,14.40409,0,0,0-9.45463-3.29177,20.57184,20.57184,0,0,0-9.45537,2.171,25.8412,25.8412,0,0,0-7.63372,5.95327L625.02019,97.56416a38.54661,38.54661,0,0,1,13.72673-8.19411,49.06041,49.06041,0,0,1,16.24849-2.73137q9.24542,0,15.19758,2.31144a22.11022,22.11022,0,0,1,9.52524,6.79313,26.19553,26.19553,0,0,1,4.973,10.99609,72.31078,72.31078,0,0,1,1.40025,15.05747v34.59811H666.76149ZM661.579,126.55943q-2.38389,0-5.95328.21033a30.20738,30.20738,0,0,0-6.86372,1.19066,15.29108,15.29108,0,0,0-5.60248,2.9417,6.77961,6.77961,0,0,0-2.31144,5.46274,6.00632,6.00632,0,0,0,3.2219,5.60248,13.46214,13.46214,0,0,0,6.72326,1.82091,21.09053,21.09053,0,0,0,5.95327-.84059,17.74333,17.74333,0,0,0,5.11268-2.38057,11.52863,11.52863,0,0,0,3.572-3.922,11.30888,11.30888,0,0,0,1.33038-5.60321v-4.48242Z"/><path class="cls-1" d="M701.21767,88.31912H720.5476V97.284h.2802a23.23993,23.23993,0,0,1,3.29176-3.7117,24.9026,24.9026,0,0,1,4.76262-3.4315,29.681,29.681,0,0,1,5.95254-2.52177,23.49153,23.49153,0,0,1,6.86373-.98032,35.09387,35.09387,0,0,1,13.72746,2.59164A30.64392,30.64392,0,0,1,766.00133,96.514a32.52483,32.52483,0,0,1,6.79313,11.13582,40.54191,40.54191,0,0,1,2.38131,14.147,42.92885,42.92885,0,0,1-2.171,13.6576,37.61242,37.61242,0,0,1-6.1636,11.55574,30.10092,30.10092,0,0,1-9.73484,8.05439,27.6418,27.6418,0,0,1-13.02659,3.01157,36.13681,36.13681,0,0,1-12.25661-2.03125,19.59029,19.59029,0,0,1-9.31417-6.9336h-.2802v39.22027H701.21767Zm19.32993,34.03809q0,7.70543,4.41255,12.46694,4.41146,4.76335,12.39634,4.76188,7.98342,0,12.39634-4.76188,4.41255-4.76115,4.41182-12.46694,0-7.701-4.41182-12.46657-4.41255-4.76006-12.39634-4.76262-7.98451,0-12.39634,4.76262Q720.5476,114.65454,720.5476,122.35721Z"/><path class="cls-1" d="M411.72508,156.39492l-14.62815-20.92-15.037,20.92H356.083l27.20352-35.68166L358.67823,88.311h26.11453l12.71306,18.183,13.67268,14.21926,26.93232,35.68166Z"/><polygon class="cls-1" points="412.851 119.041 437.322 86.639 412.029 86.639 399.178 104.822 412.851 119.041"/></g><g id="Fox"><path class="cls-1" d="M184.2093,3.14342a3.04251,3.04251,0,0,0-.083-.74261c-.00793-.03873-.01769-.07747-.02684-.11193a3.07645,3.07645,0,0,0-.34218-.78348c-.02135-.036-.06161-.10034-.08478-.1348A3.08653,3.08653,0,0,0,183.17787.804a1.86915,1.86915,0,0,0-.1476-.12961c-.04453-.03508-.09333-.06954-.14334-.10187a2.99193,2.99193,0,0,0-.635-.34614A1.5727,1.5727,0,0,0,182.097.17082,2.61793,2.61793,0,0,0,181.775.07506a2.97966,2.97966,0,0,0-.44831-.06557l-.02318-.00214c-.02318-.00183-.04636-.00335-.07014-.00457a3.20645,3.20645,0,0,0-.85638.08356c-.04147.00915-.10979.02592-.15066.03782a3.10542,3.10542,0,0,0-.68924.29339c-.0549.02866-.108.05977-.158.0924L92.10524,57.69423,4.84328.51819a1.93241,1.93241,0,0,0-.176-.10369A3.15807,3.15807,0,0,0,3.96342.11836C3.9436.11287,3.87437.0961,3.85424.09122A3.122,3.122,0,0,0,2.95975.00339c-.0305.00183-.06191.00457-.09363.00793a2.90175,2.90175,0,0,0-.42026.0613,2.10338,2.10338,0,0,0-.28119.08173C2.11313.1696,2.02927.198,1.97925.21748a3.08811,3.08811,0,0,0-.64747.34981A1.933,1.933,0,0,0,1.1671.6844a1.91373,1.91373,0,0,0-.14548.12992,3.0496,3.0496,0,0,0-.47881.54926c-.01769.02562-.06374.09912-.08021.126a3.145,3.145,0,0,0-.355.81032c-.00793.02958-.01586.06283-.02318.09637a3.12861,3.12861,0,0,0-.08356.73866L.00056,3.162a2.03548,2.03548,0,0,0,.00519.204L9.356,122.7042c.00427.05551.01159.11284.02134.17018a3.16687,3.16687,0,0,0,.15249.62886c.01647.05.03782.10918.05551.15188a3.106,3.106,0,0,0,.40592.70022c.0305.04026.0613.07747.07747.09577a2.86393,2.86393,0,0,0,.19244.21958l57.449,57.449,22.1605,22.1797a3.10533,3.10533,0,0,0,2.20955.91493h.05185a3.00165,3.00165,0,0,0,.74841-.09637c.0677-.01647.133-.03538.21165-.061a3.09792,3.09792,0,0,0,.54347-.23484c.0549-.02866.12077-.06587.16652-.09515a3.10959,3.10959,0,0,0,.53736-.42819l22.159-22.17787,57.45022-57.45022a2.27684,2.27684,0,0,0,.17872-.20189c.02013-.02379.07624-.09272.09515-.11773a3.14628,3.14628,0,0,0,.41538-.72889c.011-.02806.02562-.07014.03781-.10613a3.08457,3.08457,0,0,0,.1531-.6191,1.91562,1.91562,0,0,0,.025-.19031l9.3524-119.37017c.00305-.047.00427-.104.00366-.15492ZM95.6637,62.96087l79.11086-51.95943L145.87988,87.47273,102.4604,63.56442a1.87179,1.87179,0,0,0-1.85669.02775L98.10412,65.068a1.87375,1.87375,0,0,0,.0488,3.255L143.387,93.23038,92.129,195.144,40.82347,93.22824l54.717-30.193C95.58258,63.0121,95.62406,62.9874,95.6637,62.96087Zm16.41749,114.74459-8.43687,8.44357,44.47714-88.43154L167.56309,122.223l-55.48129,55.4819Zm38.99549-86.31287,25.1886-66.66386-7.0175,89.56789ZM86.05207,61.19536,38.33,87.47273,9.43135,10.99138ZM33.1338,91.39259l-18.17171,22.904L7.94489,24.72873Zm2.95491,6.3249,44.47744,88.43276-8.43808-8.44479-.0003-.00061L16.64647,122.223Z"/></g></svg>