<svg xmlns="http://www.w3.org/2000/svg" viewBox="0 0 862.94399 250"><defs><style>.cls-1{fill:#fff;}</style></defs><g id="text"><path class="cls-1" d="M303.02029,131.75684H289.1531V114.948h13.86719V102.90241a54.55968,54.55968,0,0,1,.98032-10.57542,21.44386,21.44386,0,0,1,3.78156-8.75451,18.52946,18.52946,0,0,1,8.05439-5.95327q5.25315-2.16989,13.79732-2.171,3.22007,0,6.30334.2802a42.9992,42.9992,0,0,1,6.02314.98032L340.9793,94.498a24.99926,24.99926,0,0,0-3.36163-1.05092,15.98931,15.98931,0,0,0-3.50137-.35006q-5.04245,0-7.56385,2.171-2.52179,2.17319-2.52178,8.895v10.785h15.54838v16.80889H324.03067v51.26691H303.02029Z"/><path class="cls-1" d="M345.04105,148.986a35.66755,35.66755,0,0,1,2.94171-14.70741,33.85177,33.85177,0,0,1,8.05438-11.27628,35.56621,35.56621,0,0,1,12.04628-7.2138,44.56963,44.56963,0,0,1,29.55456,0,35.58751,35.58751,0,0,1,12.04627,7.2138,33.883,33.883,0,0,1,8.05439,11.27628,38.2376,38.2376,0,0,1,0,29.4152,33.82813,33.82813,0,0,1-8.05439,11.27555,35.54044,35.54044,0,0,1-12.04627,7.21379,44.55746,44.55746,0,0,1-29.55456,0,35.5192,35.5192,0,0,1-12.04628-7.21379,33.797,33.797,0,0,1-8.05438-11.27555A35.65346,35.65346,0,0,1,345.04105,148.986Zm21.01112,0q0,7.70543,4.41182,12.46694,4.41255,4.76335,12.39707,4.76189,7.98342,0,12.39634-4.76189,4.41145-4.76114,4.41182-12.46694,0-7.701-4.41182-12.46657-4.41255-4.76-12.39634-4.76262-7.98452,0-12.39707,4.76262Q366.05253,141.28337,366.05217,148.986Z"/><path class="cls-1" d="M549.40413,134.97875a14.87743,14.87743,0,0,0-12.186-5.74295,11.45445,11.45445,0,0,0-5.18255,1.26052,4.45833,4.45833,0,0,0-2.52177,4.342,3.9035,3.9035,0,0,0,2.59164,3.7128,34.20093,34.20093,0,0,0,6.58353,2.10111q3.99226.9123,8.54418,1.96064a32.15433,32.15433,0,0,1,8.54418,3.29177,19.15063,19.15063,0,0,1,6.58353,6.093q2.59017,3.85437,2.59164,10.29523a19.07049,19.07049,0,0,1-2.87184,10.85562,22.015,22.015,0,0,1-7.35352,6.86373,31.61424,31.61424,0,0,1-10.08563,3.64183,59.97125,59.97125,0,0,1-11.06522,1.05092,53.58484,53.58484,0,0,1-14.42759-2.03124,26.93006,26.93006,0,0,1-12.32647-7.2138l12.7464-14.14738a21.13026,21.13026,0,0,0,6.51367,5.53261,17.54974,17.54974,0,0,0,8.33458,1.89151,19.46161,19.46161,0,0,0,6.5828-1.05092,3.873,3.873,0,0,0,2.9417-3.85216,4.2708,4.2708,0,0,0-2.5909-3.99189,28.51278,28.51278,0,0,0-6.58354-2.24085q-3.99225-.91008-8.54491-1.96138a35.309,35.309,0,0,1-8.54418-3.1513,17.86054,17.86054,0,0,1-6.58353-5.95327q-2.59348-3.85106-2.5909-10.29559a20.75484,20.75484,0,0,1,2.45117-10.3651,21.54474,21.54474,0,0,1,6.44307-7.14392,27.91766,27.91766,0,0,1,9.17517-4.13236,42.10009,42.10009,0,0,1,10.50482-1.33039,49.32763,49.32763,0,0,1,13.587,1.96065,25.21983,25.21983,0,0,1,11.62635,7.00419Z"/><path class="cls-1" d="M567.61328,114.948h22.41137l13.86719,42.72273h.28019L615.79765,114.948h22.97176l12.60667,42.72273h.2802l12.7464-42.72273H685.694l-24.23228,68.0758H640.73079l-14.14739-45.2434h-.2802l-12.60667,45.2434H592.54569Z"/><path class="cls-1" d="M735.13814,174.47957H734.858a19.76444,19.76444,0,0,1-9.31491,7.84405,32.04576,32.04576,0,0,1-12.25587,2.38131,31.63382,31.63382,0,0,1-9.17517-1.33112,23.1297,23.1297,0,0,1-7.77346-3.99189,19.25316,19.25316,0,0,1-5.323-6.58353,20.07749,20.07749,0,0,1-1.96138-9.10457,20.86252,20.86252,0,0,1,2.17171-9.94517,19.42143,19.42143,0,0,1,5.88268-6.72326,29.214,29.214,0,0,1,8.47431-4.13236,61.97339,61.97339,0,0,1,9.8753-2.171,94.63376,94.63376,0,0,1,10.22536-.84059q5.11085-.13789,9.45463-.13973a10.92923,10.92923,0,0,0-3.99189-8.89534,14.40413,14.40413,0,0,0-9.45463-3.29177,20.57178,20.57178,0,0,0-9.45537,2.171,25.841,25.841,0,0,0-7.63372,5.95327L693.39684,124.193a38.54682,38.54682,0,0,1,13.72672-8.19412,49.06077,49.06077,0,0,1,16.2485-2.73137q9.24541,0,15.19758,2.31145a22.11014,22.11014,0,0,1,9.52524,6.79313,26.19535,26.19535,0,0,1,4.97294,10.99608,72.31015,72.31015,0,0,1,1.40026,15.05748v34.59811H735.13814Zm-5.18254-21.29131q-2.38389,0-5.95328.21033a30.20791,30.20791,0,0,0-6.86373,1.19065,15.29113,15.29113,0,0,0-5.60247,2.94171,6.77959,6.77959,0,0,0-2.31144,5.46274,6.00631,6.00631,0,0,0,3.2219,5.60247,13.462,13.462,0,0,0,6.72326,1.82092,21.09053,21.09053,0,0,0,5.95327-.84059,17.74308,17.74308,0,0,0,5.11268-2.38058,11.52851,11.52851,0,0,0,3.572-3.922,11.30891,11.30891,0,0,0,1.33038-5.60321v-4.48242Z"/><path class="cls-1" d="M769.59431,114.948h19.32994v8.96484h.2802a23.24032,23.24032,0,0,1,3.29176-3.71169,24.9026,24.9026,0,0,1,4.76262-3.4315,29.68039,29.68039,0,0,1,5.95254-2.52177,23.49115,23.49115,0,0,1,6.86373-.98033,35.09405,35.09405,0,0,1,13.72746,2.59164A30.64409,30.64409,0,0,1,834.378,123.1428a32.52483,32.52483,0,0,1,6.79313,11.13582,40.54191,40.54191,0,0,1,2.38131,14.147,42.92879,42.92879,0,0,1-2.171,13.65759,37.61236,37.61236,0,0,1-6.1636,11.55575,30.101,30.101,0,0,1-9.73484,8.05438,27.64169,27.64169,0,0,1-13.0266,3.01157,36.137,36.137,0,0,1-12.2566-2.03124,19.59031,19.59031,0,0,1-9.31417-6.9336h-.2802v39.22026H769.59431ZM788.92425,148.986q0,7.70543,4.41255,12.46694,4.41145,4.76335,12.39634,4.76189,7.98342,0,12.39634-4.76189,4.41255-4.76114,4.41182-12.46694,0-7.701-4.41182-12.46657-4.41255-4.76-12.39634-4.76262-7.98452,0-12.39634,4.76262Q788.92425,141.28337,788.92425,148.986Z"/><path class="cls-1" d="M480.10173,183.02375l-14.62815-20.92-15.037,20.92H424.45969l27.20352-35.68166-24.60834-32.40223h26.11454l12.71306,18.183,13.67268,14.21926,26.93232,35.68166Z"/><polygon class="cls-1" points="481.228 145.67 505.698 113.268 480.406 113.268 467.555 131.45 481.228 145.67"/></g><g id="Fox"><path class="cls-1" d="M242.93971,3.81472a3.69257,3.69257,0,0,0-.10067-.90121c-.00963-.047-.02147-.094-.03257-.13583a3.734,3.734,0,0,0-.41526-.9508c-.02591-.04367-.07476-.12176-.10289-.16358A3.74541,3.74541,0,0,0,241.688.97564a2.27245,2.27245,0,0,0-.17913-.1573c-.054-.04256-.11326-.08438-.17395-.12361a3.63105,3.63105,0,0,0-.77056-.42007,1.908,1.908,0,0,0-.188-.06736,3.17536,3.17536,0,0,0-.39083-.11621,3.61757,3.61757,0,0,0-.544-.07958l-.02813-.00259c-.02813-.00222-.05626-.00407-.08512-.00555A3.89122,3.89122,0,0,0,238.289.10478c-.05034.0111-.13324.03146-.18283.04589a3.7687,3.7687,0,0,0-.83644.35605c-.06662.03479-.131.07254-.19172.11214L131.16635,70.01513,25.26916.62885A2.35054,2.35054,0,0,0,25.05561.503a3.833,3.833,0,0,0-.8542-.35937c-.02406-.00666-.10808-.027-.1325-.03294A3.78924,3.78924,0,0,0,22.98339.00411c-.037.00222-.07513.00555-.11362.00962a3.522,3.522,0,0,0-.51.0744,2.55153,2.55153,0,0,0-.34124.09918c-.06254.01851-.16432.05293-.225.07662a3.74729,3.74729,0,0,0-.78574.42451,2.34346,2.34346,0,0,0-.19985.14212,2.32117,2.32117,0,0,0-.17654.15766,3.70078,3.70078,0,0,0-.58107.66656c-.02146.03109-.07735.12029-.09734.15286a3.81662,3.81662,0,0,0-.4308.98337c-.00962.0359-.01924.07624-.02813.117a3.79641,3.79641,0,0,0-.10141.8964l-.00037.03294a2.46807,2.46807,0,0,0,.0063.2476L30.74561,148.90831c.00518.06736.01407.13694.02591.20652a3.84337,3.84337,0,0,0,.18505.76315c.02.0607.0459.1325.06736.18432a3.77,3.77,0,0,0,.49261.84976c.037.04885.07439.094.094.11621a3.47728,3.47728,0,0,0,.23354.26648l69.71752,69.71752,26.893,26.91629a3.76848,3.76848,0,0,0,2.68141,1.11032h.06292a3.64308,3.64308,0,0,0,.90824-.117c.08216-.02.16136-.04293.25685-.074a3.75973,3.75973,0,0,0,.65953-.285c.06662-.03479.14656-.07995.20208-.11548a3.77333,3.77333,0,0,0,.65212-.51963l26.89113-26.91407,69.719-69.719a2.764,2.764,0,0,0,.21689-.245c.02442-.02887.09252-.11252.11547-.14286a3.81848,3.81848,0,0,0,.50408-.88456c.01333-.03405.03109-.08512.0459-.12879a3.74449,3.74449,0,0,0,.18579-.75132,2.32533,2.32533,0,0,0,.03035-.23094L242.936,4.049c.00371-.057.00519-.12621.00445-.188Zm-107.455,72.59176,96.00538-63.05562L196.42484,106.153l-52.69193-29.014a2.27155,2.27155,0,0,0-2.2532.03368l-3.03338,1.79094a2.27392,2.27392,0,0,0,.05921,3.95014L193.3996,113.1402,131.19522,236.818,68.9331,113.13761l66.40212-36.64082C135.38629,76.46866,135.43663,76.43868,135.48474,76.40648Zm19.92352,139.24888-10.2386,10.24674,53.97546-107.31654,23.59348,29.73872L155.409,215.65462Zm47.32318-104.74542L233.2992,30.00968l-8.51613,108.69556Zm-78.91095-36.646L65.90712,106.153,30.837,13.33864Zm-64.21923,36.646-22.05237,27.7953L29.03313,30.00968Zm3.58595,7.67562,53.97583,107.318L106.923,215.65536l-.00037-.00074L39.593,148.32428Z"/></g></svg>