<svg id="Layer_1" data-name="Layer 1" xmlns="http://www.w3.org/2000/svg" viewBox="0 0 221.19367 247.79891"><defs><style>.cls-1{fill:#fff;}.cls-2{fill:#323233;}</style></defs><path class="cls-1" d="M125.38086,247.15625a22.68616,22.68616,0,0,1-11.332-3.03711L28.05908,194.47363A22.72709,22.72709,0,0,1,16.727,174.8457v-99.292a22.7265,22.7265,0,0,1,11.332-19.62793L114.04834,6.2793a22.66361,22.66361,0,0,1,22.66455,0l85.98926,49.64648a22.72638,22.72638,0,0,1,11.333,19.62793v99.292a22.72577,22.72577,0,0,1-11.333,19.62793l-85.98926,49.64551A22.68616,22.68616,0,0,1,125.38086,247.15625Z" transform="translate(-14.78411 -1.30009)"/><path class="cls-2" d="M125.38094,5.18571a20.74942,20.74942,0,0,1,10.36084,2.77617L221.73128,57.608a20.77911,20.77911,0,0,1,10.36087,17.94546v99.29216a20.77929,20.77929,0,0,1-10.36087,17.94551l-85.9895,49.64607a20.72172,20.72172,0,0,1-20.72167,0l-85.9895-49.64612a20.77918,20.77918,0,0,1-10.36088-17.94546V75.55347A20.77929,20.77929,0,0,1,29.03061,57.608l85.98946-49.646a20.74954,20.74954,0,0,1,10.36087-2.77621m0-3.88562a24.5916,24.5916,0,0,0-12.30366,3.29675L27.08778,54.24292A24.60729,24.60729,0,0,0,14.78411,75.55347v99.29216a24.60729,24.60729,0,0,0,12.30367,21.31054l85.9895,49.64609a24.60746,24.60746,0,0,0,24.60734,0l85.98948-49.64609a24.60726,24.60726,0,0,0,12.30368-21.31054V75.55347A24.60726,24.60726,0,0,0,223.6741,54.24292L137.68462,4.59684a24.5917,24.5917,0,0,0-12.30368-3.29675Z" transform="translate(-14.78411 -1.30009)"/></svg>