<svg id="Layer_1" data-name="Layer 1" xmlns="http://www.w3.org/2000/svg" viewBox="0 0 154.48454 179.49946"><defs><style>.cls-1{fill:#fff;}</style></defs><path class="cls-1" d="M201.083,45.688l-.00293-.002a1.9273,1.9273,0,0,0-2.124.24072L150.80273,86.37549H98.9751L50.82373,45.92822a1.93215,1.93215,0,0,0-3.17187,1.61719l6.8164,94.4624a1.4471,1.4471,0,0,0,.02588.18848,1.60761,1.60761,0,0,0,.09082.30273,1.80369,1.80369,0,0,0,.23.47657,1.59992,1.59992,0,0,0,.10352.13867l58.6875,69.53418a1.80106,1.80106,0,0,0,.12793.17871l9.668,11.457a1.92958,1.92958,0,0,0,2.95166,0l9.65918-11.4375a1.25614,1.25614,0,0,0,.09765-.125l58.748-69.60742q.03662-.04395.07031-.09082a1.79,1.79,0,0,0,.27246-.55274c.00684-.01758.0127-.03515.01856-.05273a1.47393,1.47393,0,0,0,.08886-.41016L202.126,47.54688A1.93,1.93,0,0,0,201.083,45.688ZM154.17773,88.5874l43.76465-36.7622-6.127,84.90234ZM126.94922,199.793l-2.07373,2.26855-2.0625-2.26074,2.07031-1.9541Zm4.74512,12.168-6.80567,8.06445-6.811-8.07031,6.80078-4.67774Zm-3.89649-7.36719,3.291-3.60059a1.94208,1.94208,0,0,0-.10449-2.708l-4.78126-4.50489a1.919,1.919,0,0,0-2.0996-.36035,1.94955,1.94955,0,0,0-.61426.42774l-4.7085,4.44531a1.9379,1.9379,0,0,0-.10351,2.708l3.27929,3.59472-6.38379,4.3916L98.044,188.21875l8.44043-36.667a1.93161,1.93161,0,0,0-1.51954-2.33008l-45.09863-8.65527L99.21289,90.24023h51.35156l39.34668,50.32618-45.09765,8.65527h-.00489a1.93222,1.93222,0,0,0-1.51464,2.332l8.44043,36.66406-17.53516,20.77539Zm-25.53027-51.9541-7.33936,31.88672-32.4331-38.42774L61.395,144.7959Zm86.11523-7.84375-33.5332,39.73047-7.33984-31.88672ZM95.59912,88.5874,57.96191,136.72754,51.83545,51.8252Z" transform="translate(-47.64665 -45.47124)"/></svg>