<svg xmlns="http://www.w3.org/2000/svg" viewBox="0 0 861.52091 267.11853"><defs><style>.cls-1{fill:#fff;}</style></defs><g id="text"><path class="cls-1" d="M277.81621,136.08012H263.949V119.27123h13.86719V107.22569a54.55977,54.55977,0,0,1,.98033-10.57543,21.44359,21.44359,0,0,1,3.78156-8.75451,18.52952,18.52952,0,0,1,8.05438-5.95327q5.25315-2.16987,13.79733-2.171,3.22005,0,6.30333.2802a43.00043,43.00043,0,0,1,6.02314.98032l-.98106,17.78922a24.99926,24.99926,0,0,0-3.36163-1.05092,15.98924,15.98924,0,0,0-3.50136-.35007q-5.04246,0-7.56386,2.171-2.52177,2.17319-2.52177,8.895v10.785H314.375v16.80889H298.8266V187.347H277.81621Z"/><path class="cls-1" d="M319.837,153.30931a35.66751,35.66751,0,0,1,2.9417-14.70741,33.852,33.852,0,0,1,8.05438-11.27629,35.566,35.566,0,0,1,12.04628-7.21379,44.56963,44.56963,0,0,1,29.55456,0,35.58723,35.58723,0,0,1,12.04627,7.21379,33.883,33.883,0,0,1,8.05439,11.27629,38.23758,38.23758,0,0,1,0,29.41519,33.828,33.828,0,0,1-8.05439,11.27555,35.54034,35.54034,0,0,1-12.04627,7.21379,44.55729,44.55729,0,0,1-29.55456,0,35.5192,35.5192,0,0,1-12.04628-7.21379,33.79708,33.79708,0,0,1-8.05438-11.27555A35.65338,35.65338,0,0,1,319.837,153.30931Zm21.01111,0q0,7.70542,4.41182,12.46694,4.41256,4.76335,12.39708,4.76188,7.98341,0,12.39634-4.76188,4.41144-4.76115,4.41182-12.46694,0-7.701-4.41182-12.46657-4.41257-4.76-12.39634-4.76262-7.98453,0-12.39708,4.76262Q340.84847,145.60663,340.84809,153.30931Z"/><path class="cls-1" d="M524.20006,139.302a14.87747,14.87747,0,0,0-12.186-5.74294,11.45445,11.45445,0,0,0-5.18255,1.26052,4.4583,4.4583,0,0,0-2.52177,4.34195,3.90349,3.90349,0,0,0,2.59164,3.7128,34.20046,34.20046,0,0,0,6.58353,2.10111q3.99226.9123,8.54418,1.96065a32.15365,32.15365,0,0,1,8.54418,3.29177,19.15063,19.15063,0,0,1,6.58353,6.093q2.59017,3.85437,2.59164,10.29523a19.07043,19.07043,0,0,1-2.87184,10.85562,22.01508,22.01508,0,0,1-7.35352,6.86373,31.61414,31.61414,0,0,1-10.08563,3.64182,59.97032,59.97032,0,0,1-11.06522,1.05093,53.58433,53.58433,0,0,1-14.42758-2.03125,26.93008,26.93008,0,0,1-12.32648-7.21379l12.74641-14.14739a21.13023,21.13023,0,0,0,6.51366,5.53261,17.54963,17.54963,0,0,0,8.33458,1.89152,19.46157,19.46157,0,0,0,6.5828-1.05093,3.87294,3.87294,0,0,0,2.9417-3.85216,4.27081,4.27081,0,0,0-2.5909-3.99189,28.51271,28.51271,0,0,0-6.58353-2.24084q-3.99227-.91009-8.54492-1.96138a35.3092,35.3092,0,0,1-8.54417-3.1513,17.86066,17.86066,0,0,1-6.58354-5.95327q-2.59347-3.85107-2.5909-10.2956a20.75483,20.75483,0,0,1,2.45117-10.36509,21.54477,21.54477,0,0,1,6.44307-7.14393,27.91786,27.91786,0,0,1,9.17517-4.13236,42.10054,42.10054,0,0,1,10.50482-1.33038,49.32806,49.32806,0,0,1,13.587,1.96064,25.21968,25.21968,0,0,1,11.62634,7.0042Z"/><path class="cls-1" d="M542.4092,119.27123h22.41137L578.68776,161.994h.2802l11.62561-42.72272h22.97176L626.172,161.994h.2802l12.7464-42.72272h21.29131L636.25763,187.347H615.52671l-14.14739-45.24339h-.28019L588.49246,187.347H567.34161Z"/><path class="cls-1" d="M709.93407,178.80285h-.2802a19.76439,19.76439,0,0,1-9.31491,7.844,32.046,32.046,0,0,1-12.25587,2.38131,31.63382,31.63382,0,0,1-9.17517-1.33112,23.12956,23.12956,0,0,1-7.77345-3.99189,19.25322,19.25322,0,0,1-5.323-6.58354,20.07756,20.07756,0,0,1-1.96138-9.10457,20.86239,20.86239,0,0,1,2.17172-9.94516,19.42133,19.42133,0,0,1,5.88267-6.72327,29.21406,29.21406,0,0,1,8.47431-4.13235,61.97229,61.97229,0,0,1,9.8753-2.171,94.63122,94.63122,0,0,1,10.22536-.84059q5.11085-.13789,9.45464-.13973a10.92926,10.92926,0,0,0-3.9919-8.89535,14.40408,14.40408,0,0,0-9.45463-3.29176,20.57184,20.57184,0,0,0-9.45537,2.171,25.84124,25.84124,0,0,0-7.63372,5.95328l-11.20569-11.48588a38.54663,38.54663,0,0,1,13.72673-8.19412,49.06073,49.06073,0,0,1,16.2485-2.73137q9.2454,0,15.19757,2.31144a22.11022,22.11022,0,0,1,9.52524,6.79313,26.19547,26.19547,0,0,1,4.97295,10.99609,72.31081,72.31081,0,0,1,1.40025,15.05748V187.347H709.93407Zm-5.18255-21.29132q-2.38389,0-5.95327.21033a30.20847,30.20847,0,0,0-6.86373,1.19066,15.29116,15.29116,0,0,0-5.60248,2.9417,6.77966,6.77966,0,0,0-2.31144,5.46275,6.00632,6.00632,0,0,0,3.2219,5.60247,13.46217,13.46217,0,0,0,6.72326,1.82091,21.09024,21.09024,0,0,0,5.95328-.84059,17.74345,17.74345,0,0,0,5.11268-2.38057,11.5287,11.5287,0,0,0,3.572-3.922,11.30888,11.30888,0,0,0,1.33039-5.60321v-4.48242Z"/><path class="cls-1" d="M744.39024,119.27123h19.32993v8.96484h.2802a23.23993,23.23993,0,0,1,3.29176-3.7117,24.90214,24.90214,0,0,1,4.76262-3.43149,29.68066,29.68066,0,0,1,5.95254-2.52178,23.49153,23.49153,0,0,1,6.86373-.98032,35.09387,35.09387,0,0,1,13.72746,2.59164,30.64386,30.64386,0,0,1,10.57542,7.28366A32.52464,32.52464,0,0,1,815.967,138.6019a40.54191,40.54191,0,0,1,2.38131,14.147,42.92884,42.92884,0,0,1-2.171,13.65759,37.61259,37.61259,0,0,1-6.1636,11.55575,30.101,30.101,0,0,1-9.73483,8.05438,27.64175,27.64175,0,0,1-13.0266,3.01157,36.13689,36.13689,0,0,1-12.25661-2.03125,19.59033,19.59033,0,0,1-9.31417-6.93359h-.2802v39.22026H744.39024Zm19.32993,34.03808q0,7.70542,4.41256,12.46694,4.41144,4.76335,12.39633,4.76188,7.98342,0,12.39634-4.76188,4.41257-4.76115,4.41182-12.46694,0-7.701-4.41182-12.46657-4.41255-4.76-12.39634-4.76262-7.98451,0-12.39633,4.76262Q763.72017,145.60663,763.72017,153.30931Z"/><path class="cls-1" d="M454.89765,187.347l-14.62815-20.92-15.037,20.92H399.25562l27.20351-35.68166L401.8508,119.26314h26.11454l12.713,18.183,13.67269,14.21926L481.28339,187.347Z"/><polygon class="cls-1" points="456.023 149.993 480.494 117.591 455.201 117.591 442.351 135.774 456.023 149.993"/></g><g id="Fox"><path class="cls-1" d="M227.38188,34.09553a3.04251,3.04251,0,0,0-.083-.74262c-.00793-.03873-.01769-.07746-.02684-.11193a3.07645,3.07645,0,0,0-.34218-.78348c-.02135-.036-.0616-.10034-.08478-.1348a3.08687,3.08687,0,0,0-.49467-.56665,1.8731,1.8731,0,0,0-.14761-.12961c-.04453-.03507-.09333-.06954-.14334-.10186a2.992,2.992,0,0,0-.635-.34615,1.57543,1.57543,0,0,0-.15493-.05551,2.61831,2.61831,0,0,0-.322-.09576,2.98,2.98,0,0,0-.44832-.06557l-.02318-.00213c-.02318-.00183-.04635-.00336-.07014-.00458a3.20645,3.20645,0,0,0-.85638.08356c-.04147.00915-.10979.02593-.15065.03782a3.10576,3.10576,0,0,0-.68925.29339c-.0549.02867-.108.05977-.158.09241L135.27781,88.64633l-87.262-57.176a1.93241,1.93241,0,0,0-.176-.10369,3.15769,3.15769,0,0,0-.70388-.29613c-.01983-.00549-.08906-.02227-.10918-.02715a3.12211,3.12211,0,0,0-.8945-.08783c-.0305.00183-.06191.00458-.09363.00793a2.90175,2.90175,0,0,0-.42026.0613,2.10317,2.10317,0,0,0-.28118.08173c-.05154.01525-.13541.04362-.18543.06313a3.08779,3.08779,0,0,0-.64746.34981,1.792,1.792,0,0,0-.31016.247,3.049,3.049,0,0,0-.47882.54927c-.01769.02561-.06374.09911-.08021.126a3.14515,3.14515,0,0,0-.355.81032c-.00793.02959-.01586.06283-.02318.09638a3.12859,3.12859,0,0,0-.08356.73865l-.00031.02714a2.03548,2.03548,0,0,0,.00519.204l9.35027,119.33815c.00427.0555.01159.11284.02135.17017a3.16666,3.16666,0,0,0,.15248.62886c.01647.05.03782.10918.05551.15188a3.10668,3.10668,0,0,0,.40592.70023c.0305.04025.0613.07746.07747.09576a2.8642,2.8642,0,0,0,.19244.21958l57.449,57.449,22.16049,22.17971a3.10537,3.10537,0,0,0,2.20955.91493h.05185a3.00166,3.00166,0,0,0,.74841-.09638c.0677-.01647.133-.03537.21165-.061a3.09863,3.09863,0,0,0,.54347-.23483c.0549-.02867.12077-.06588.16652-.09516a3.11048,3.11048,0,0,0,.53737-.42818L159.671,213.073l57.45021-57.45022a2.27684,2.27684,0,0,0,.17872-.20189c.02013-.02379.07624-.09271.09515-.11772a3.14655,3.14655,0,0,0,.41538-.7289c.011-.028.02562-.07014.03782-.10613a3.08507,3.08507,0,0,0,.15309-.6191,1.91524,1.91524,0,0,0,.025-.19031l9.35241-119.37016c.00305-.047.00427-.104.00366-.15493ZM138.83627,93.913l79.11086-51.95942-28.89468,76.47128L145.633,94.51652a1.87181,1.87181,0,0,0-1.8567.02775l-2.49959,1.47578a1.87376,1.87376,0,0,0,.0488,3.255l45.23409,24.90742-51.258,101.91363L83.996,124.18034l54.717-30.193C138.75515,93.96421,138.79663,93.9395,138.83627,93.913Zm16.41749,114.74459-8.43687,8.44358L191.294,128.6696l19.44163,24.50545L155.25437,208.657Zm38.99549-86.31287,25.1886-66.66385-7.0175,89.56788ZM129.22464,92.14746,81.50256,118.42483,52.60392,41.94348ZM76.30637,122.34469l-18.17171,22.904-7.0172-89.56788Zm2.95492,6.32491,44.47744,88.43276-8.43809-8.4448-.0003-.00061-55.48129-55.4819Z"/></g></svg>