<svg id="Layer_1" data-name="Layer 1" xmlns="http://www.w3.org/2000/svg" xmlns:xlink="http://www.w3.org/1999/xlink" viewBox="0 0 250 250"><defs><style>.cls-1{fill:#20242a;}.cls-2{fill:url(#linear-gradient);}.cls-3{fill:#9530fc;}</style><linearGradient id="linear-gradient" x1="125" y1="113.06998" x2="125" y2="164.20411" gradientUnits="userSpaceOnUse"><stop offset="0" stop-color="#9530fc"/><stop offset="0.15664" stop-color="#9230f8"/><stop offset="0.31306" stop-color="#8a2eec"/><stop offset="0.4695" stop-color="#7b2cd8"/><stop offset="0.62603" stop-color="#6729bc"/><stop offset="0.78263" stop-color="#4d2498"/><stop offset="0.9373" stop-color="#2e1f6c"/><stop offset="1" stop-color="#201d58"/></linearGradient></defs><path class="cls-1" d="M237.205,3.82944a3.70669,3.70669,0,0,0-.10105-.90468c-.00966-.04719-.02155-.09437-.0327-.13636a3.748,3.748,0,0,0-.41686-.95447c-.026-.04384-.07505-.12223-.10329-.16422a3.76043,3.76043,0,0,0-.60262-.69031,2.28025,2.28025,0,0,0-.17983-.1579c-.05424-.04272-.11369-.08471-.17462-.12409a3.64487,3.64487,0,0,0-.77353-.42169,1.91611,1.91611,0,0,0-.18874-.06762,3.18874,3.18874,0,0,0-.39234-.11666,3.63,3.63,0,0,0-.54616-.07988L233.665.009c-.02824-.00223-.05647-.00409-.08545-.00558a3.90587,3.90587,0,0,0-1.04327.10181c-.05053.01114-.13375.03158-.18354.04607a3.7832,3.7832,0,0,0-.83967.35741c-.06687.03493-.13152.07282-.19245.11258L125.00025,70.28534,18.69437.63128A2.35537,2.35537,0,0,0,18.48.505a3.8465,3.8465,0,0,0-.8575-.36076c-.02415-.00669-.10848-.02713-.133-.03307a3.80369,3.80369,0,0,0-1.08971-.107c-.03716.00223-.07542.00557-.11406.00966a3.53415,3.53415,0,0,0-.512.07468A2.56087,2.56087,0,0,0,15.43119.188c-.06279.01857-.165.05313-.22589.0769a3.76216,3.76216,0,0,0-.78877.42615,2.357,2.357,0,0,0-.20063.14267A2.32873,2.32873,0,0,0,14.03868.992a3.71463,3.71463,0,0,0-.58331.66913c-.02155.03121-.07765.12075-.09771.15344a3.83157,3.83157,0,0,0-.43247.98717c-.00966.036-.01932.07653-.02823.1174a3.81116,3.81116,0,0,0-.10181.89986l-.00037.03306a2.481,2.481,0,0,0,.00632.24856L24.192,149.483c.0052.06762.01412.13747.026.20732a3.8588,3.8588,0,0,0,.18577.7661c.02006.06093.04607.133.06762.185a3.78418,3.78418,0,0,0,.49451.853c.03716.049.07468.09437.09437.11667a3.49175,3.49175,0,0,0,.23444.2675l69.98658,69.98658L122.278,248.8854A3.7831,3.7831,0,0,0,124.96978,250h.06316a3.65739,3.65739,0,0,0,.91175-.1174c.08248-.02007.162-.0431.25784-.07431a3.7748,3.7748,0,0,0,.66208-.28608c.06687-.03493.14712-.08025.20285-.11592a3.789,3.789,0,0,0,.65465-.52163L154.717,221.86671l69.98807-69.98807a2.77517,2.77517,0,0,0,.21772-.246c.02452-.029.09288-.11294.11591-.14341a3.83266,3.83266,0,0,0,.506-.888c.01338-.03418.03121-.08546.04607-.1293a3.75837,3.75837,0,0,0,.18651-.75421,2.33458,2.33458,0,0,0,.03047-.23184L237.20126,4.06462c.00371-.05721.0052-.12669.00446-.18874ZM129.33531,76.70136l96.37589-63.299-35.20061,93.16027-52.89528-29.126a2.28032,2.28032,0,0,0-2.2619.03381l-3.04509,1.79785a2.28269,2.28269,0,0,0,.05945,3.96539l55.1059,30.34317L125.02923,237.732,62.52682,113.57424,129.18521,76.792C129.23648,76.76377,129.287,76.73368,129.33531,76.70136Zm20.00041,139.78628-10.27811,10.28629,54.18376-107.73071,23.68454,29.85349L149.33646,216.4869ZM196.84153,111.338,227.52726,30.1255l-8.549,109.115ZM117.62605,74.55055l-58.13689,32.0121L24.28373,13.39012ZM53.159,111.338,31.02149,139.24054,22.47287,30.1255Zm3.59979,7.70524,54.18413,107.7322-10.2796-10.28778-.00037-.00074L33.07347,148.89671Z"/><path class="cls-2" d="M135.98641,164.20411,125,148.49223l-11.29351,15.71188H94.19668l20.43109-26.79857L96.14578,113.07H115.759l9.54809,13.65624,10.26882,10.67932,20.22741,26.79857Z"/><polygon class="cls-3" points="136.832 136.15 155.211 111.814 136.215 111.814 126.563 125.47 136.832 136.15"/></svg>