<svg id="Layer_1" data-name="Layer 1" xmlns="http://www.w3.org/2000/svg" viewBox="0 0 984.43683 248.86458"><defs><style>.cls-1{fill:#fff;}</style></defs><path class="cls-1" d="M24.62372,99.98619H0V70.13894H24.62372V48.7499a96.88043,96.88043,0,0,1,1.74074-18.77859,38.07716,38.07716,0,0,1,6.71485-15.54523Q38.05275,7.70927,47.38133,3.855,56.70925.002,71.881,0q5.7178,0,11.19272.49754A76.3552,76.3552,0,0,1,93.76889,2.23828l-1.742,31.588a44.38948,44.38948,0,0,0-5.96919-1.8661,28.39142,28.39142,0,0,0-6.21731-.6216q-8.95377,0-13.431,3.855-4.47786,3.85888-4.47787,15.79465V70.13894h27.609V99.98619h-27.609v91.03372H24.62372Z"/><path class="cls-1" d="M99.23923,130.57975a63.33424,63.33424,0,0,1,5.22353-26.11569,60.11012,60.11012,0,0,1,14.302-20.02309,63.154,63.154,0,0,1,21.39035-12.8094,79.14141,79.14141,0,0,1,52.4795,0A63.19178,63.19178,0,0,1,214.025,84.441a60.16543,60.16543,0,0,1,14.302,20.02309,63.33424,63.33424,0,0,1,5.22353,26.11569,63.30907,63.30907,0,0,1-5.22353,26.11634,60.06774,60.06774,0,0,1-14.302,20.02179,63.10825,63.10825,0,0,1-21.39035,12.8094,79.11974,79.11974,0,0,1-52.4795,0,63.07059,63.07059,0,0,1-21.39035-12.8094,60.01261,60.01261,0,0,1-14.302-20.02179A63.30907,63.30907,0,0,1,99.23923,130.57975Zm37.30906,0q0,13.68239,7.834,22.13732,7.83529,8.4582,22.01325,8.45559,14.176,0,22.012-8.45559,7.83333-8.45428,7.834-22.13732,0-13.67454-7.834-22.13666-7.83529-8.45233-22.012-8.4569-14.178,0-22.01325,8.4569Q136.54894,116.90227,136.54829,130.57975Z"/><path class="cls-1" d="M462.12305,105.70726q-8.20747-10.19568-21.63847-10.19763a20.33942,20.33942,0,0,0-9.20255,2.23828q-4.47787,2.23893-4.47787,7.70993,0,4.47787,4.60193,6.59275a60.72979,60.72979,0,0,0,11.69025,3.7309q7.089,1.62,15.17175,3.48148a57.09525,57.09525,0,0,1,15.17174,5.84513,34.00526,34.00526,0,0,1,11.69026,10.81924q4.59932,6.84413,4.60193,18.28105,0,11.69418-5.09947,19.27613a39.09178,39.09178,0,0,1-13.05752,12.1878,56.13663,56.13663,0,0,1-17.90887,6.46673,106.489,106.489,0,0,1-19.64831,1.8661,95.1493,95.1493,0,0,1-25.6188-3.60684,47.81928,47.81928,0,0,1-21.8879-12.8094l22.63356-25.12126a37.52053,37.52053,0,0,0,11.5662,9.82415,31.16262,31.16262,0,0,0,14.79956,3.35873,34.5575,34.5575,0,0,0,11.689-1.86611q5.22418-1.8648,5.22353-6.84021,0-4.72077-4.60063-7.08833a50.6289,50.6289,0,0,0-11.69026-3.979q-7.089-1.616-15.173-3.48279a62.69775,62.69775,0,0,1-15.17175-5.59571A31.71479,31.71479,0,0,1,394.097,126.22725q-4.60518-6.83826-4.60062-18.28171,0-10.69125,4.35251-18.4051A38.25656,38.25656,0,0,1,405.28974,76.8551a49.57319,49.57319,0,0,1,16.29219-7.33776A74.757,74.757,0,0,1,440.23516,67.155a87.59066,87.59066,0,0,1,24.12617,3.48148A44.78231,44.78231,0,0,1,485.006,83.07371Z"/><path class="cls-1" d="M494.4567,70.13894h39.79546l24.62372,75.862h.49754l20.64339-75.862h40.79054l22.38544,75.862h.49754l22.63355-75.862h37.8066l-43.02882,120.881H624.29014L599.16888,110.682h-.49754L576.2859,191.01991H538.72872Z"/><path class="cls-1" d="M791.92757,175.84816H791.43a35.09535,35.09535,0,0,1-16.54031,13.92855,56.90347,56.90347,0,0,1-21.76253,4.22844,56.17208,56.17208,0,0,1-16.29219-2.36364,41.0709,41.0709,0,0,1-13.80318-7.08833,34.18734,34.18734,0,0,1-9.452-11.69026,35.65129,35.65129,0,0,1-3.48279-16.16683q0-10.4464,3.85627-17.65944a34.48614,34.48614,0,0,1,10.44575-11.93838,51.87509,51.87509,0,0,1,15.04769-7.33775,110.04322,110.04322,0,0,1,17.53538-3.855,168.03644,168.03644,0,0,1,18.157-1.49262q9.07524-.24486,16.78843-.24812,0-9.94593-7.08833-15.7953a25.57715,25.57715,0,0,0-16.78843-5.84513,36.529,36.529,0,0,0-16.78973,3.855A45.8861,45.8861,0,0,0,737.706,106.95046L717.80829,86.55519a68.44657,68.44657,0,0,1,24.3743-14.55014,87.11591,87.11591,0,0,1,28.85217-4.85q16.4169,0,26.986,4.10439A39.26051,39.26051,0,0,1,814.9346,83.32183a46.51466,46.51466,0,0,1,8.83038,19.52555,128.40068,128.40068,0,0,1,2.4864,26.73729v61.43524H791.92757Zm-9.20256-37.8066q-4.233,0-10.57111.37349a53.63888,53.63888,0,0,0-12.1878,2.11422,27.15208,27.15208,0,0,0-9.94822,5.22353q-4.10373,3.48474-4.10438,9.70009a10.66533,10.66533,0,0,0,5.72107,9.94822,23.90452,23.90452,0,0,0,11.93837,3.23336,37.44989,37.44989,0,0,0,10.57112-1.49262,31.50664,31.50664,0,0,0,9.0785-4.22714,20.4713,20.4713,0,0,0,6.34267-6.96428,20.08108,20.08108,0,0,0,2.36234-9.94951v-7.95936Z"/><path class="cls-1" d="M853.11077,70.13894h34.32381V86.05765h.49754a41.26725,41.26725,0,0,1,5.84513-6.59079,44.21869,44.21869,0,0,1,8.4569-6.09325A52.704,52.704,0,0,1,912.804,68.89574a41.7136,41.7136,0,0,1,12.1878-1.74074,62.31559,62.31559,0,0,1,24.3756,4.60193A54.41381,54.41381,0,0,1,968.146,84.69039a57.75391,57.75391,0,0,1,12.06244,19.77367,71.98968,71.98968,0,0,1,4.22844,25.12061,76.22779,76.22779,0,0,1-3.855,24.25154,66.78745,66.78745,0,0,1-10.9446,20.51933,53.4497,53.4497,0,0,1-17.286,14.302,49.083,49.083,0,0,1-23.13109,5.34758,64.16781,64.16781,0,0,1-21.76384-3.60684,34.78613,34.78613,0,0,1-16.539-12.31186h-.49754v69.64271H853.11077Zm34.32381,60.44081q0,13.68239,7.8353,22.13732,7.83333,8.4582,22.012,8.45559,14.176,0,22.01195-8.45559,7.83529-8.45428,7.834-22.13732,0-13.67454-7.834-22.13666-7.83529-8.45233-22.01195-8.4569-14.178,0-22.012,8.4569Q887.43459,116.90227,887.43458,130.57975Z"/><path class="cls-1" d="M339.064,191.01991l-25.97494-37.14727-26.701,37.14727H240.26147l48.30478-63.35929-43.69657-57.536H291.2408l22.57434,32.28716,24.27834,25.24888,47.82322,63.35929Z"/><polygon class="cls-1" points="341.063 124.691 384.515 67.155 339.604 67.155 316.785 99.442 341.063 124.691"/></svg>