<svg id="Layer_1" data-name="Layer 1" xmlns="http://www.w3.org/2000/svg" viewBox="0 0 337.84259 327.57061"><defs><style>.cls-1{fill:#212429;}</style></defs><path class="cls-1" d="M280.58274,51.09821a3.68932,3.68932,0,0,0-.10057-.9003c-.00961-.047-.02145-.09391-.03254-.13569a3.7297,3.7297,0,0,0-.41484-.94985c-.02588-.04363-.07469-.12164-.10279-.16342a3.74236,3.74236,0,0,0-.5997-.687,2.26822,2.26822,0,0,0-.179-.15714c-.054-.04252-.11313-.0843-.17377-.12349a3.62739,3.62739,0,0,0-.76979-.41965,1.90917,1.90917,0,0,0-.18782-.06729,3.17474,3.17474,0,0,0-.39044-.11609,3.614,3.614,0,0,0-.54351-.0795l-.0281-.00258c-.0281-.00222-.0562-.00407-.085-.00555a3.88675,3.88675,0,0,0-1.03821.10131c-.05029.01109-.13311.03142-.18265.04584a3.765,3.765,0,0,0-.8356.35569c-.06655.03475-.13089.07247-.19152.112L168.92155,117.23219,63.13062,47.91554a2.34475,2.34475,0,0,0-.21333-.12571,3.82876,3.82876,0,0,0-.85335-.359c-.024-.00666-.108-.027-.13236-.03291a3.78532,3.78532,0,0,0-1.08444-.10648c-.037.00222-.07505.00554-.1135.00961a3.5172,3.5172,0,0,0-.5095.07432,2.54868,2.54868,0,0,0-.34089.09909c-.06249.01848-.16416.05287-.2248.07653a3.74353,3.74353,0,0,0-.785.42409,2.173,2.173,0,0,0-.376.29948,3.69749,3.69749,0,0,0-.58048.66589c-.02144.03106-.07727.12017-.09724.1527a3.81287,3.81287,0,0,0-.43037.98239c-.00961.03586-.01922.07616-.0281.11683a3.79311,3.79311,0,0,0-.10131.8955l-.00037.03291a2.46906,2.46906,0,0,0,.00629.24735L68.60158,196.0462c.00518.06729.014.1368.02588.20631a3.839,3.839,0,0,0,.18487.76239c.02.06064.04584.13237.06729.18413a3.76556,3.76556,0,0,0,.49212.84891c.037.0488.07431.09391.09391.1161a3.47412,3.47412,0,0,0,.2333.2662l69.64756,69.64756,26.866,26.88929a3.76473,3.76473,0,0,0,2.67873,1.1092h.06285a3.63958,3.63958,0,0,0,.90733-.11683c.08208-.02.1612-.04289.25659-.07395a3.75588,3.75588,0,0,0,.65887-.2847c.06655-.03475.14642-.07986.20188-.11535a3.77048,3.77048,0,0,0,.65147-.51911l26.86414-26.88707,69.649-69.649a2.76034,2.76034,0,0,0,.21667-.24476c.0244-.02884.09243-.1124.11535-.14272a3.81419,3.81419,0,0,0,.50358-.88366c.01331-.034.03106-.085.04585-.12867a3.74014,3.74014,0,0,0,.1856-.75056,2.3207,2.3207,0,0,0,.03032-.23071L280.579,51.33225c.0037-.05694.00518-.12608.00444-.18782ZM173.2356,123.61713l95.909-62.99235-35.03009,92.709-52.639-28.98494a2.26927,2.26927,0,0,0-2.25094.03365l-3.03034,1.78914a2.27163,2.27163,0,0,0,.05915,3.94617l54.839,30.19619-62.142,123.55369L106.75075,160.31139l66.33548-36.604C173.13725,123.67924,173.18754,123.64929,173.2356,123.61713Zm19.90353,139.10914-10.22832,10.23646,53.92128-107.20885,23.56982,29.70888-67.262,67.26277ZM240.41482,158.086,270.9519,77.26689l-8.50758,108.58648Zm-78.83176-36.60922-57.85526,31.857L68.6929,60.61258ZM97.42827,158.086,75.398,185.85337,66.89082,77.26689Zm3.58236,7.66792,53.92165,107.21033-10.2298-10.23794-.00037-.00074-67.262-67.26277Z"/></svg>